<?xml version="1.0" encoding="utf-8"?>
<!-- Generator: Adobe Illustrator 22.0.0, SVG Export Plug-In . SVG Version: 6.00 Build 0)  -->
<svg version="1.1" id="图层_1" xmlns="http://www.w3.org/2000/svg" xmlns:xlink="http://www.w3.org/1999/xlink" x="0px" y="0px"
	 viewBox="0 0 120 60" style="enable-background:new 0 0 120 60;" xml:space="preserve">
<style type="text/css">
	.st0{fill:#1890FF;}
	.st1{font-family:'MaiandraGD-Regular';}
	.st2{font-size:21.0861px;}
	.st3{fill:#F84C39;}
</style>
<text transform="matrix(1 0 0 1 16.7725 57.8838)" class="st0 st1 st2">XK-BLOG</text>
<path class="st0" d="M62.9,8c-0.7-0.1-1.2,0.5-1.2,1.2v1.2c0,0.6,0.5,1.1,1.1,1.1c6.2,0.4,11.1,5.4,11.6,11.6
	c0.1,0.6,0.5,1.1,1.1,1.1h1.2c0.7,0,1.2-0.6,1.2-1.2C77.3,15,70.9,8.6,62.9,8z"/>
<path class="st0" d="M62.9,1.1c-0.7,0-1.2,0.5-1.2,1.2v1.2c0,0.6,0.5,1.1,1.1,1.1c10,0.6,18,8.5,18.5,18.5c0,0.6,0.5,1.1,1.1,1.1
	h1.2c0.7,0,1.2-0.5,1.2-1.2C84.2,11.2,74.7,1.7,62.9,1.1z"/>
<path class="st3" d="M57.7,17.2h-0.7c-0.6,0-1.2,0.5-1.2,1.2v2.3c0,0.6,0.5,1.2,1.2,1.2h0.8c3.4,0,6.4,2.8,6.1,6.2
	c-0.2,2.9-2.5,5.2-5.4,5.4c-3.4,0.2-6.2-2.7-6.2-6.1V9.2c0-0.6-0.5-1.2-1.2-1.2H49c-0.6,0-1.2,0.5-1.2,1.2v18
	c0,6,4.8,11.1,10.8,10.9c5.4-0.2,9.8-4.6,10-10C68.8,22,63.7,17.2,57.7,17.2z"/>
</svg>
